# xmcd
#
# Track frame offsets:
# 150
# 13901
# 26439
# 40784
# 53916
# 65894
# 76494
# 94587
# 108144
# 121700
# 135118
# 148993
# 161968
# 175635
# 191523
# 205188
# 216076
# 229495
# 242915
# 256771
# 270121
# 283494
# 297081
# 313609
# 327331
#
# Disc length: 4573 seconds
#
#
# Revision: 0
# Processed by: cddbd v1.5.2PL0 Copyright (c) Steve Scherf et al.
# Submitted via: FreeRIP 2.945 
#
DISCID=6b11db19
DTITLE=Murphy-P2001 - Wild-Angel2
DYEAR=2001
DGENRE=Jungle
TTITLE0=WA 201
TTITLE1=WA 202
TTITLE2=WA 203
TTITLE3=WA 204
TTITLE4=WA 205
TTITLE5=WA 206
TTITLE6=WA 207
TTITLE7=WA 208
TTITLE8=WA 209
TTITLE9=WA 210
TTITLE10=WA 211
TTITLE11=WA 212
TTITLE12=WA 213
TTITLE13=WA 214
TTITLE14=WA 215
TTITLE15=WA 216
TTITLE16=WA 217
TTITLE17=WA 218
TTITLE18=WA 219
TTITLE19=WA 220
TTITLE20=WA 221
TTITLE21=WA 222
TTITLE22=WA 223
TTITLE23=WA 224
TTITLE24=WA 225
EXTD=Wild Angel by Pat (Patrice) Murphy 9 CDs\nread by Bernadette Dunne Blackstone Audio\njungle country
EXTT0=
EXTT1=
EXTT2=
EXTT3=
EXTT4=
EXTT5=
EXTT6=
EXTT7=
EXTT8=
EXTT9=
EXTT10=
EXTT11=
EXTT12=
EXTT13=
EXTT14=
EXTT15=
EXTT16=
EXTT17=
EXTT18=
EXTT19=
EXTT20=
EXTT21=
EXTT22=
EXTT23=
EXTT24=
PLAYORDER=
